<?xml version="1.0" standalone="no"?><!DOCTYPE svg PUBLIC "-//W3C//DTD SVG 1.1//EN" "http://www.w3.org/Graphics/SVG/1.1/DTD/svg11.dtd" [<!ENTITY nbsp " ">]><svg data-noselect="" 
  viewBox="208.23567321778 103.06579044746132 400 391.8371903569787" 
  width="400" 
  height="391.8371903569787" 
  ref="svg_canvas" 
  preserveAspectRatio="none" 
  version="1.1" xmlns="http://www.w3.org/2000/svg" 
  style="background: #ffffff;">
    <defs></defs>
    <g id="shape_wCNxXoDjkj" class="icon"  ref="shape_wCNxXoDjkj" key="shape_wCNxXoDjkj" transform="translate(322.23571014404,183.06579044746132) rotate(0,86,86) scale(1,1)" style="cursor:move;display:inline;opacity:1;" filter="">
            <g style="display:inline"><rect fill="rgba(0,0,0,0)" width="192" height="147.06261771347732" x="-10" y="-10"></rect><svg version="1.1" id="图层_1" xmlns="http://www.w3.org/2000/svg" xmlns:xlink="http://www.w3.org/1999/xlink" x="0px" y="0px" width="172" height="127.06261771347731" viewBox="0.0446244478225708 -0.028106689453125 164.7958221435547 121.74063110351562" style="enable-background:new 0 0 164.8 121.7;" xml:space="preserve" class="style-removed" preserveAspectRatio="none" data-parent="shape_wCNxXoDjkj">

<g>
	<path d="M141.4,47.6c5.2,4.5,17.9,20.7,16.4,34.9l0,0c-0.1,2-0.4,3.9-1.1,5.7c-3.6,10.1-15,16.3-30.8,18.5l0,0
		c0,0-49.4,13.4-103.1-28.5c3.5,12,10.8,23,21.5,31.1c22,16.7,51.7,16.2,72.9,0.6c23.8,0.5,41.8-6.2,46.5-19.4
		C168.2,77.7,159.1,61.8,141.4,47.6z" fill="#07A9A2"></path>
	<path d="M47,88V36.1l12.4-13.4c-11.7,1.4-22.5,4-31.2,7.9c-5.4,9.3-8,19.6-8,29.9c-10.4-11.1-9.2-21.5-7.9-25.6
		c-0.7,1.2-1.4,2.4-1.8,3.7c-3.2,9,0.9,19.6,10.2,30v0C28.4,76,37.4,82.6,47,88z" fill="#145C81"></path>
	<path d="M7.1,60.8c0.3,0.4,0.6,0.8,0.9,1.3c-0.4-0.6-0.7-1.2-1-1.8c-3.1-5.8-4.2-11.6-2.8-17.1
		C7,32.5,18.4,25.5,34.3,22c8.3-1.8,17.9-2.6,28.1-2.5c8.9,0.1,18.4,1,27.8,2.5c0,0,0,0,0,0c0,0,0,0,0,0c-5-1.4-10.1-2.6-15.1-3.6
		h45.5l-13.4,20.3H62.6v37.4h24.6l17.2,20.3H64.7c18.3,7.4,37.1,11,51.6,10l0,0c0.2,0,0.4,0,0.6,0c0.1,0,0.2,0,0.3,0
		c0.6-0.1,1.2-0.1,1.8-0.2c1.1-0.1,2.1-0.3,3.1-0.4c0,0,0.1-0.1,0.1-0.1c2.5-0.5,4.8-1.2,6.7-1.8c3.3-1.1,5.5-2.1,5.5-2.1
		s-4.2,1.4-10.6,2.4c-1.6,0.2-3.4,0.4-5.2,0.6L79.8,59.6h22l30.3,34.4c8.4-12.9,11.3-27.9,9.1-42.3l-0.9-5
		c-3.1-13.2-10.7-25.4-22.4-34.3c-23.6-18-56.1-16-77.4,3.1C21.1,16.4,6.1,22.5,1.3,35c-1.6,4-1.6,8.4-0.4,12.9
		C1.9,52.1,4.1,56.5,7.1,60.8z M128.4,50.7C128.5,50.7,128.5,50.8,128.4,50.7c-4.1,0.3-7.4,3.8-7.8,8.2c0,0,0,0,0,0
		c-0.3-4.4-3.6-7.9-7.8-8.2c0,0,0,0,0,0c4.1-0.3,7.4-3.8,7.8-8.2c0,0,0,0,0,0C121,46.9,124.3,50.5,128.4,50.7z" fill="#145C81"></path>
</g>
</svg></g>
        </g><g id="shape_gBDF8cVS8M" class="brand_name"  ref="shape_gBDF8cVS8M" key="shape_gBDF8cVS8M" transform="translate(251.73567321778,146.34998080444) rotate(0,222.78,242.966665530672) scale(1,1)" style="cursor:move;display:inline;opacity:1;" filter="">
            <g style="display:inline"><svg xmlns="http://www.w3.org/2000/svg" version="1.1" xmlns:xlink="http://www.w3.org/1999/xlink" width="447" height="470.106" viewBox="0 0 447 470.106" preserveAspectRatio="none" data-parent="shape_gBDF8cVS8M"><rect fill="rgba(0,0,0,0)" width="179" height="67" x="67" y="201.553"></rect><g data-width="178.978" transform="translate(67.011, 0)"><path d="M20.97-18.56L20.97-26.53L42.88-26.53L42.88 0L22.91 0Q17.76 0 14.71-0.77Q11.66-1.54 9.18-3.48L9.18-3.48Q2.14-8.91 2.14-22.18L2.14-22.18Q2.14-30.82 5.49-36.58L5.49-36.58Q7.97-40.80 12.26-42.75Q16.55-44.69 23.38-44.69L23.38-44.69L42.88-44.69L42.88-36.72L24.46-36.72Q18.49-36.72 15.81-34.10L15.81-34.10Q12.60-31.02 12.60-23.05L12.60-23.05Q12.60-18.96 13.43-15.68Q14.27-12.40 15.75-10.79L15.75-10.79Q17.02-9.31 19.26-8.64Q21.51-7.97 24.79-7.97L24.79-7.97L33.43-7.97L33.43-18.56L20.97-18.56Z" transform="translate(0 258.553) skewX(0)" fill="rgb(25, 25, 25)" stroke="rgb(25, 25, 25)" stroke-width="0.112" data-glyph-w="55.297000000000004" data-glyph-h="67" data-glyph-ascender="57.553000000000004" data-glyph-descender="-9.447000000000001"></path><path d="M14.07 0L4.56 0L4.56-44.69L14.07-44.69L14.07 0Z" transform="translate(55.297000000000004 258.553) skewX(0)" fill="rgb(25, 25, 25)" stroke="rgb(25, 25, 25)" stroke-width="0.112" data-glyph-w="27.559" data-glyph-h="67" data-glyph-ascender="57.553000000000004" data-glyph-descender="-9.447000000000001"></path><path d="M4.36-44.69L18.22-44.69L29.35-9.78L41.07-44.69L54.94-44.69L54.94 0L45.90 0L45.90-33.50L34.24 0L24.46 0L13.40-33.50L13.40 0L4.36 0L4.36-44.69Z" transform="translate(82.85600000000001 258.553) skewX(0)" fill="rgb(25, 25, 25)" stroke="rgb(25, 25, 25)" stroke-width="0.112" data-glyph-w="68.563" data-glyph-h="67" data-glyph-ascender="57.553000000000004" data-glyph-descender="-9.447000000000001"></path><path d="M14.07 0L4.56 0L4.56-44.69L14.07-44.69L14.07 0Z" transform="translate(151.419 258.553) skewX(0)" fill="rgb(25, 25, 25)" stroke="rgb(25, 25, 25)" stroke-width="0.112" data-glyph-w="27.559" data-glyph-h="67" data-glyph-ascender="57.553000000000004" data-glyph-descender="-9.447000000000001"></path></g></svg></g>
        </g>
  </svg>