<svg data-noselect="" viewBox="130.00002148438 66.0480178730877 554 415.5" width="554" ref="svg_canvas" height="415.5" preserveAspectRatio="none" version="1.1" xmlns="http://www.w3.org/2000/svg" style="background: rgb(255, 255, 255);" class="style-removed">
    <def></def>
    <g id="shape_vH7cG6ZvhZ" ref="shape_vH7cG6ZvhZ" key="shape_vH7cG6ZvhZ" transform="translate(356.75003051758,199.35530164583543) rotate(0,50.25,50.25) scale(1,1)" filter="" cursor="move" display="inline" opacity="1">
            <g display="inline"><rect fill="rgba(0,0,0,0)" width="120.5" height="105.73843235286917" x="-10" y="-10"></rect><svg version="1.1" id="图层_1" xmlns="http://www.w3.org/2000/svg" xmlns:xlink="http://www.w3.org/1999/xlink" x="0px" y="0px" width="100.5" height="85.73843235286917" viewBox="0 0 49.70000076293945 42.400001525878906" xml:space="preserve" class="style-removed" preserveAspectRatio="none" data-parent="shape_vH7cG6ZvhZ" enable-background="new 0 0 49.6 42.3">

<g>
	<path d="M5.4,28.4l0.5-0.1c1.9-0.3,3.8,0.5,5.1,1.9c1.3,1.6,3.4,2.3,6.2,2.3c3.2,0,4.7-0.8,4.7-2.5
		c0-0.9-0.4-1.6-1.1-2.1c-0.7-0.5-2-0.9-3.9-1.3c-7.2-1.4-11.8-3.2-13.9-5.4C1,19.1,0,16.5,0,13.5c0-3.9,1.5-7.1,4.4-9.6
		S11.6,0,17.1,0c4.7,0,8.4,1,11.3,3.1c3.4,2.5,2.5,7.8-1.5,9l-0.1,0c-1.8,0.6-3.7,0-5.1-1.3c-1.2-1.1-2.9-1.7-5-1.7
		c-2.7,0-4.1,0.9-4.1,2.6c0,0.8,0.3,1.4,0.9,1.8c0.6,0.4,1.8,0.8,3.6,1.2c4.9,1,8.4,2,10.5,2.8c2.1,0.8,3.8,2.2,5.2,4.1
		c1.4,1.9,2.1,4.2,2.1,6.8c0,4.1-1.7,7.5-5,10.1c-3.4,2.6-7.8,3.9-13.2,3.9c-6,0-10.6-1.5-13.8-4.5C-0.7,34.8,1,29.2,5.4,28.4z" fill="#6f9f75"></path>
	<g>
		<circle cx="27.2" cy="2.6" r="1.3" fill="#6f9f75"></circle>
		<circle cx="31.4" cy="2.6" r="1.3" fill="#6f9f75"></circle>
		<circle cx="35.6" cy="2.6" r="1.3" fill="#6f9f75"></circle>
		<circle cx="39.9" cy="2.6" r="1.3" fill="#6f9f75"></circle>
		<circle cx="22.9" cy="6.8" r="1.3" fill="#6f9f75"></circle>
		<circle cx="27.2" cy="6.8" r="1.3" fill="#6f9f75"></circle>
		<circle cx="31.4" cy="6.8" r="1.3" fill="#6f9f75"></circle>
		<circle cx="35.6" cy="6.8" r="1.3" fill="#6f9f75"></circle>
		<circle cx="39.9" cy="6.8" r="1.3" fill="#6f9f75"></circle>
		<circle cx="44.1" cy="6.8" r="1.3" fill="#6f9f75"></circle>
		<circle cx="18.7" cy="10.9" r="1.3" fill="#6f9f75"></circle>
		<circle cx="22.9" cy="10.9" r="1.3" fill="#6f9f75"></circle>
		<circle cx="27.2" cy="10.9" r="1.3" fill="#6f9f75"></circle>
		<circle cx="31.4" cy="10.9" r="1.3" fill="#6f9f75"></circle>
		<circle cx="35.6" cy="10.9" r="1.3" fill="#6f9f75"></circle>
		<circle cx="39.9" cy="10.9" r="1.3" fill="#6f9f75"></circle>
		<circle cx="44.1" cy="10.9" r="1.3" fill="#6f9f75"></circle>
		<circle cx="18.7" cy="15.1" r="1.3" fill="#6f9f75"></circle>
		<circle cx="22.9" cy="15.1" r="1.3" fill="#6f9f75"></circle>
		<circle cx="27.2" cy="15.1" r="1.3" fill="#6f9f75"></circle>
		<circle cx="31.4" cy="15.1" r="1.3" fill="#6f9f75"></circle>
		<circle cx="18.7" cy="19.2" r="1.3" fill="#6f9f75"></circle>
		<circle cx="22.9" cy="19.2" r="1.3" fill="#6f9f75"></circle>
		<circle cx="27.2" cy="19.2" r="1.3" fill="#6f9f75"></circle>
		<circle cx="31.4" cy="19.2" r="1.3" fill="#6f9f75"></circle>
		<circle cx="35.6" cy="19.2" r="1.3" fill="#6f9f75"></circle>
		<circle cx="39.9" cy="19.2" r="1.3" fill="#6f9f75"></circle>
		<circle cx="44.1" cy="19.2" r="1.3" fill="#6f9f75"></circle>
		<circle cx="22.9" cy="23.4" r="1.3" fill="#6f9f75"></circle>
		<circle cx="27.2" cy="23.4" r="1.3" fill="#6f9f75"></circle>
		<circle cx="31.4" cy="23.4" r="1.3" fill="#6f9f75"></circle>
		<circle cx="35.6" cy="23.4" r="1.3" fill="#6f9f75"></circle>
		<circle cx="39.9" cy="23.4" r="1.3" fill="#6f9f75"></circle>
		<circle cx="44.1" cy="23.4" r="1.3" fill="#6f9f75"></circle>
		<circle cx="48.4" cy="23.4" r="1.3" fill="#6f9f75"></circle>
		<circle cx="39.9" cy="27.5" r="1.3" fill="#6f9f75"></circle>
		<circle cx="44.1" cy="27.5" r="1.3" fill="#6f9f75"></circle>
		<circle cx="48.4" cy="27.5" r="1.3" fill="#6f9f75"></circle>
		<circle cx="18.7" cy="31.7" r="1.3" fill="#6f9f75"></circle>
		<circle cx="22.9" cy="31.7" r="1.3" fill="#6f9f75"></circle>
		<circle cx="27.2" cy="31.7" r="1.3" fill="#6f9f75"></circle>
		<circle cx="31.4" cy="31.7" r="1.3" fill="#6f9f75"></circle>
		<circle cx="35.6" cy="31.7" r="1.3" fill="#6f9f75"></circle>
		<circle cx="39.9" cy="31.7" r="1.3" fill="#6f9f75"></circle>
		<circle cx="44.1" cy="31.7" r="1.3" fill="#6f9f75"></circle>
		<circle cx="48.4" cy="31.7" r="1.3" fill="#6f9f75"></circle>
		<circle cx="22.9" cy="35.8" r="1.3" fill="#6f9f75"></circle>
		<circle cx="27.2" cy="35.8" r="1.3" fill="#6f9f75"></circle>
		<circle cx="31.4" cy="35.8" r="1.3" fill="#6f9f75"></circle>
		<circle cx="35.6" cy="35.8" r="1.3" fill="#6f9f75"></circle>
		<circle cx="39.9" cy="35.8" r="1.3" fill="#6f9f75"></circle>
		<circle cx="44.1" cy="35.8" r="1.3" fill="#6f9f75"></circle>
		<circle cx="27.2" cy="39.9" r="1.3" fill="#6f9f75"></circle>
		<circle cx="31.4" cy="39.9" r="1.3" fill="#6f9f75"></circle>
		<circle cx="35.6" cy="39.9" r="1.3" fill="#6f9f75"></circle>
		<circle cx="39.9" cy="39.9" r="1.3" fill="#6f9f75"></circle>
	</g>
</g>
</svg></g>
        </g><g id="shape_9E1o3FQheA" ref="shape_9E1o3FQheA" key="shape_9E1o3FQheA" transform="translate(156.00002148438,132.24073410033998) rotate(0,343.178,189) scale(1,1)" filter="" cursor="move" display="inline" opacity="1">
            <g display="inline"><svg xmlns="http://www.w3.org/2000/svg" version="1.1" xmlns:xlink="http://www.w3.org/1999/xlink" width="610" height="378" viewBox="0 0 610 378" preserveAspectRatio="none" data-parent="shape_9E1o3FQheA"><rect fill="rgba(0,0,0,0)" width="394" height="54" x="54" y="162"></rect><g data-width="393.76800000000003" transform="translate(54.115999999999985, 0)"><path d="M39.85-13.12L9.88-13.12Q8.37-13.12 7.07-13.69Q5.78-14.26 4.81-15.23Q3.83-16.20 3.27-17.50Q2.70-18.79 2.70-20.30L2.70-20.30Q2.70-21.82 3.27-23.11Q3.83-24.41 4.81-25.38Q5.78-26.35 7.07-26.92Q8.37-27.49 9.88-27.49L9.88-27.49L42.66-27.49Q43.74-27.49 44.50-26.73Q45.25-25.97 45.25-24.89L45.25-24.89Q45.25-23.81 44.50-23.06Q43.74-22.30 42.66-22.30L42.66-22.30L9.77-22.30Q8.96-22.30 8.34-21.73Q7.72-21.17 7.72-20.30L7.72-20.30Q7.72-19.49 8.34-18.90Q8.96-18.31 9.77-18.31L9.77-18.31L39.64-18.31Q41.15-18.31 42.47-17.74Q43.79-17.17 44.77-16.20Q45.74-15.23 46.30-13.90Q46.87-12.58 46.87-11.07L46.87-11.07Q46.87-9.56 46.30-8.26Q45.74-6.97 44.77-5.99Q43.79-5.02 42.47-4.48Q41.15-3.94 39.64-3.94L39.64-3.94L6.91-3.94Q5.83-3.94 5.08-4.70Q4.32-5.45 4.32-6.53L4.32-6.53Q4.32-7.61 5.08-8.37Q5.83-9.13 6.91-9.13L6.91-9.13L39.85-9.13Q40.66-9.13 41.26-9.69Q41.85-10.26 41.85-11.07L41.85-11.07Q41.85-11.93 41.26-12.53Q40.66-13.12 39.85-13.12L39.85-13.12Z" transform="translate(0 206) " fill="#6f9f75" stroke="rgb(111, 159, 117)" stroke-width="0.09" data-glyph-w="49.572" data-glyph-h="51.3" data-glyph-ascender="43.2" data-glyph-descender="-8.1"></path><path d="M44.98-24.89L44.98-6.53Q44.98-5.45 44.23-4.70Q43.47-3.94 42.39-3.94L42.39-3.94Q41.31-3.94 40.55-4.70Q39.80-5.45 39.80-6.53L39.80-6.53L39.80-13.12L7.88-13.12L7.88-6.53Q7.88-5.45 7.13-4.70Q6.37-3.94 5.29-3.94L5.29-3.94Q4.21-3.94 3.46-4.70Q2.70-5.45 2.70-6.53L2.70-6.53L2.70-24.89Q2.70-25.97 3.46-26.73Q4.21-27.49 5.29-27.49L5.29-27.49Q6.37-27.49 7.13-26.73Q7.88-25.97 7.88-24.89L7.88-24.89L7.88-18.31L39.80-18.31L39.80-24.89Q39.80-25.97 40.55-26.73Q41.31-27.49 42.39-27.49L42.39-27.49Q43.47-27.49 44.23-26.73Q44.98-25.97 44.98-24.89L44.98-24.89Z" transform="translate(49.572 206) " fill="#6f9f75" stroke="rgb(111, 159, 117)" stroke-width="0.09" data-glyph-w="47.682" data-glyph-h="51.3" data-glyph-ascender="43.2" data-glyph-descender="-8.1"></path><path d="M19.98-21.76L7.29-4.91Q6.48-3.94 5.29-3.94L5.29-3.94Q4.21-3.94 3.46-4.70Q2.70-5.45 2.70-6.53L2.70-6.53Q2.70-7.51 3.24-8.10L3.24-8.10L16.36-25.76Q17.28-27 18.79-27.78Q20.30-28.57 22.03-28.57L22.03-28.57Q23.65-28.57 25.11-27.86Q26.57-27.16 27.49-25.92L27.49-25.92L40.61-8.37Q40.93-7.99 41.15-7.53Q41.36-7.07 41.36-6.53L41.36-6.53Q41.36-5.45 40.61-4.70Q39.85-3.94 38.77-3.94L38.77-3.94Q37.48-3.94 36.72-4.97L36.72-4.97L24.14-21.76Q23.76-22.19 23.19-22.71Q22.63-23.22 22.03-23.22L22.03-23.22Q21.44-23.22 20.87-22.71Q20.30-22.19 19.98-21.76L19.98-21.76Z" transform="translate(97.254 206) " fill="#6f9f75" stroke="rgb(111, 159, 117)" stroke-width="0.09" data-glyph-w="44.064" data-glyph-h="51.3" data-glyph-ascender="43.2" data-glyph-descender="-8.1"></path><path d="M37.64-13.12L37.42-13.12Q38.88-12.20 40.39-11.15Q41.90-10.10 43.47-8.86L43.47-8.86Q44.06-8.42 44.50-7.86Q44.93-7.29 44.93-6.53L44.93-6.53Q44.93-5.45 44.17-4.70Q43.42-3.94 42.34-3.94L42.34-3.94Q41.42-3.94 40.50-4.70L40.50-4.70Q38.29-6.32 35.96-7.83Q33.64-9.34 31.13-10.53Q28.62-11.72 25.92-12.42Q23.22-13.12 20.30-13.12L20.30-13.12L9.56-13.12Q8.86-13.01 8.37-12.47Q7.88-11.93 7.88-11.12L7.88-11.12L7.88-6.53Q7.88-5.45 7.10-4.70Q6.32-3.94 5.29-3.94L5.29-3.94Q4.21-3.94 3.46-4.70Q2.70-5.45 2.70-6.53L2.70-6.53L2.70-11.72Q2.70-13.07 3.21-14.28Q3.73-15.50 4.59-16.39Q5.45-17.28 6.64-17.79Q7.83-18.31 9.23-18.31L9.23-18.31L37.85-18.31Q38.66-18.31 39.28-18.87Q39.91-19.44 39.91-20.30L39.91-20.30Q39.91-21.11 39.28-21.71Q38.66-22.30 37.85-22.30L37.85-22.30L5.29-22.30Q4.21-22.30 3.46-23.06Q2.70-23.81 2.70-24.89L2.70-24.89Q2.70-25.97 3.46-26.73Q4.21-27.49 5.29-27.49L5.29-27.49L37.64-27.49Q39.15-27.49 40.47-26.92Q41.80-26.35 42.80-25.38Q43.79-24.41 44.36-23.11Q44.93-21.82 44.93-20.30L44.93-20.30Q44.93-18.79 44.36-17.50Q43.79-16.20 42.80-15.23Q41.80-14.26 40.47-13.69Q39.15-13.12 37.64-13.12L37.64-13.12Z" transform="translate(141.318 206) " fill="#6f9f75" stroke="rgb(111, 159, 117)" stroke-width="0.09" data-glyph-w="47.628" data-glyph-h="51.3" data-glyph-ascender="43.2" data-glyph-descender="-8.1"></path><path d="M2.70-24.89L2.70-24.89Q2.70-25.97 3.46-26.73Q4.21-27.49 5.29-27.49L5.29-27.49L43.58-27.49Q44.66-27.49 45.41-26.73Q46.17-25.97 46.17-24.89L46.17-24.89Q46.17-23.81 45.41-23.06Q44.66-22.30 43.58-22.30L43.58-22.30L5.29-22.30Q4.21-22.30 3.46-23.06Q2.70-23.81 2.70-24.89ZM43.58-3.94L9.29-3.94Q8.10-3.94 6.91-4.46Q5.72-4.97 4.81-5.89Q3.89-6.80 3.29-8.10Q2.70-9.40 2.70-11.02L2.70-11.02L2.70-15.88Q2.70-17.33 3.54-17.82Q4.37-18.31 6.16-18.31L6.16-18.31L42.39-18.31Q43.47-18.31 44.23-17.55Q44.98-16.79 44.98-15.71L44.98-15.71Q44.98-14.63 44.23-13.88Q43.47-13.12 42.39-13.12L42.39-13.12L7.88-13.12L7.88-10.48Q7.88-9.94 8.34-9.53Q8.80-9.13 9.56-9.13L9.56-9.13L43.58-9.13Q44.66-9.13 45.41-8.37Q46.17-7.61 46.17-6.53L46.17-6.53Q46.17-5.45 45.41-4.70Q44.66-3.94 43.58-3.94L43.58-3.94Z" transform="translate(188.94600000000003 206) " fill="#6f9f75" stroke="rgb(111, 159, 117)" stroke-width="0.09" data-glyph-w="48.87" data-glyph-h="51.3" data-glyph-ascender="43.2" data-glyph-descender="-8.1"></path><path d="M42.34-3.94L10.10-3.94Q8.59-3.94 7.24-4.51Q5.89-5.08 4.89-6.05Q3.89-7.02 3.29-8.32Q2.70-9.61 2.70-11.12L2.70-11.12L2.70-24.89Q2.70-25.97 3.46-26.73Q4.21-27.49 5.29-27.49L5.29-27.49Q6.32-27.49 7.10-26.73Q7.88-25.97 7.88-24.89L7.88-24.89L7.88-11.12Q7.88-10.31 8.51-9.72Q9.13-9.13 9.94-9.13L9.94-9.13L42.34-9.13Q43.42-9.13 44.17-8.37Q44.93-7.61 44.93-6.53L44.93-6.53Q44.93-5.45 44.17-4.70Q43.42-3.94 42.34-3.94L42.34-3.94Z" transform="translate(237.81600000000003 206) " fill="#6f9f75" stroke="rgb(111, 159, 117)" stroke-width="0.09" data-glyph-w="47.628" data-glyph-h="51.3" data-glyph-ascender="43.2" data-glyph-descender="-8.1"></path><path d="M7.88-24.89L7.88-6.53Q7.88-5.45 7.13-4.70Q6.37-3.94 5.29-3.94L5.29-3.94Q4.21-3.94 3.46-4.70Q2.70-5.45 2.70-6.53L2.70-6.53L2.70-24.89Q2.70-25.97 3.46-26.73Q4.21-27.49 5.29-27.49L5.29-27.49Q6.37-27.49 7.13-26.73Q7.88-25.97 7.88-24.89L7.88-24.89Z" transform="translate(285.444 206) " fill="#6f9f75" stroke="rgb(111, 159, 117)" stroke-width="0.09" data-glyph-w="10.584" data-glyph-h="51.3" data-glyph-ascender="43.2" data-glyph-descender="-8.1"></path><path d="M2.70-24.89L2.70-24.89Q2.70-25.97 3.46-26.73Q4.21-27.49 5.29-27.49L5.29-27.49L43.58-27.49Q44.66-27.49 45.41-26.73Q46.17-25.97 46.17-24.89L46.17-24.89Q46.17-23.81 45.41-23.06Q44.66-22.30 43.58-22.30L43.58-22.30L5.29-22.30Q4.21-22.30 3.46-23.06Q2.70-23.81 2.70-24.89ZM2.70-6.53L2.70-15.88Q2.70-17.33 3.54-17.82Q4.37-18.31 6.16-18.31L6.16-18.31L42.39-18.31Q43.47-18.31 44.23-17.55Q44.98-16.79 44.98-15.71L44.98-15.71Q44.98-14.63 44.23-13.88Q43.47-13.12 42.39-13.12L42.39-13.12L7.88-13.12L7.88-6.53Q7.88-5.45 7.13-4.70Q6.37-3.94 5.29-3.94L5.29-3.94Q4.21-3.94 3.46-4.70Q2.70-5.45 2.70-6.53L2.70-6.53Z" transform="translate(296.028 206) " fill="#6f9f75" stroke="rgb(111, 159, 117)" stroke-width="0.09" data-glyph-w="48.87" data-glyph-h="51.3" data-glyph-ascender="43.2" data-glyph-descender="-8.1"></path><path d="M2.70-24.89L2.70-24.89Q2.70-25.97 3.46-26.73Q4.21-27.49 5.29-27.49L5.29-27.49L43.58-27.49Q44.66-27.49 45.41-26.73Q46.17-25.97 46.17-24.89L46.17-24.89Q46.17-23.81 45.41-23.06Q44.66-22.30 43.58-22.30L43.58-22.30L5.29-22.30Q4.21-22.30 3.46-23.06Q2.70-23.81 2.70-24.89ZM43.58-3.94L9.29-3.94Q8.10-3.94 6.91-4.46Q5.72-4.97 4.81-5.89Q3.89-6.80 3.29-8.10Q2.70-9.40 2.70-11.02L2.70-11.02L2.70-15.88Q2.70-17.33 3.54-17.82Q4.37-18.31 6.16-18.31L6.16-18.31L42.39-18.31Q43.47-18.31 44.23-17.55Q44.98-16.79 44.98-15.71L44.98-15.71Q44.98-14.63 44.23-13.88Q43.47-13.12 42.39-13.12L42.39-13.12L7.88-13.12L7.88-10.48Q7.88-9.94 8.34-9.53Q8.80-9.13 9.56-9.13L9.56-9.13L43.58-9.13Q44.66-9.13 45.41-8.37Q46.17-7.61 46.17-6.53L46.17-6.53Q46.17-5.45 45.41-4.70Q44.66-3.94 43.58-3.94L43.58-3.94Z" transform="translate(344.898 206) " fill="#6f9f75" stroke="rgb(111, 159, 117)" stroke-width="0.09" data-glyph-w="48.87" data-glyph-h="51.3" data-glyph-ascender="43.2" data-glyph-descender="-8.1"></path></g></svg></g>
        </g>
  </svg>